<svg xmlns="http://www.w3.org/2000/svg" viewBox="0 250 800 200" width="800" height="200">
  <path d="M0 450 l100 -200 l50 0 l-80 160 l50 0 l0 -100 l50 0 l0 100 l30 0 l0 -80 c0 -100 120 -100 120 0 l0 80 l30 0 l80 -160 l50 0 l-80 160 l50 0 l0 -100 l50 0 l0 100 L800 410 L800 450" fill="#fff2" />
  <path d="M0 450 l100 -200 l50 0 l-80 160 l50 0 l0 -100 l50 0 l0 84z m200 -66 l0 -54 c0 -100 120 -100 120 0 l0 15z m196 -66 l34 -68 l50 0 l-25 48z" fill="#fff2" />
  <path d="M550 407 l0 -20 l20 20 l0 -20m20 0 a10 10 0 0 0 0 20 a10 10 0 0 0 0 -20 m20 0 l20 0 m-10 0 l0 20 m30 0 l0 -20 l20 0 m-20 10 l20 0 m20 -10 a10 10 0 0 0 0 20 a10 10 0 0 0 0 -20  m20 0 l0 10 a10 10 0 0 0 20 0 l0 -10 m10 20 l0 -20 l20 20 l0 -20 m10 0 l0 20 l10 0 a10 10 0 0 0 0 -20 l-10 0" fill="none" stroke="#fff2" stroke-width="5" stroke-linecap="round" stroke-linejoin="round" />
</svg>
