<svg xmlns="http://www.w3.org/2000/svg" width="96" height="32" viewBox="0 0 96 32">
  <path d="M3.6-14.784v5.328H4.992a2.463,2.463,0,0,0,1.032-.18,1.4,1.4,0,0,0,.6-.516,2.346,2.346,0,0,0,.264-.828,7.962,7.962,0,0,0,.072-1.14,7.962,7.962,0,0,0-.072-1.14,2.281,2.281,0,0,0-.288-.852,1.947,1.947,0,0,0-1.728-.672ZM1.152,0V-17.088H5.088q4.32,0,4.32,5.016A6.321,6.321,0,0,1,8.94-9.5,3.629,3.629,0,0,1,7.3-7.8L9.936,0H7.344L5.064-7.3H3.6V0Zm12.48,0V-12.168H16.08V0Zm0-14.64v-2.448H16.08v2.448ZM20.5,4.92V-12.168h2.448v1.1a6.023,6.023,0,0,1,.936-.888,2.292,2.292,0,0,1,1.392-.36,2.227,2.227,0,0,1,2.136,1.152,3.254,3.254,0,0,1,.312,1.008,10.647,10.647,0,0,1,.1,1.608v4.632a18.343,18.343,0,0,1-.072,1.944,2.334,2.334,0,0,1-1.1,1.8,2.563,2.563,0,0,1-1.392.312A2.531,2.531,0,0,1,23.964-.18a2.96,2.96,0,0,1-.972-.924h-.048V4.92ZM25.368-8.208a2.221,2.221,0,0,0-.288-1.2,1,1,0,0,0-.912-.456,1.081,1.081,0,0,0-.888.42,1.7,1.7,0,0,0-.336,1.092v4.728a1.333,1.333,0,0,0,.348.948,1.149,1.149,0,0,0,.876.372,1,1,0,0,0,.948-.432,1.964,1.964,0,0,0,.252-1.008ZM32.232,4.92V-12.168H34.68v1.1a6.023,6.023,0,0,1,.936-.888,2.292,2.292,0,0,1,1.392-.36,2.227,2.227,0,0,1,2.136,1.152,3.253,3.253,0,0,1,.312,1.008,10.647,10.647,0,0,1,.1,1.608v4.632a18.343,18.343,0,0,1-.072,1.944,2.334,2.334,0,0,1-1.1,1.8,2.563,2.563,0,0,1-1.392.312A2.531,2.531,0,0,1,35.7-.18a2.96,2.96,0,0,1-.972-.924H34.68V4.92ZM37.1-8.208a2.221,2.221,0,0,0-.288-1.2,1,1,0,0,0-.912-.456,1.081,1.081,0,0,0-.888.42,1.7,1.7,0,0,0-.336,1.092v4.728a1.333,1.333,0,0,0,.348.948A1.149,1.149,0,0,0,35.9-2.3a1,1,0,0,0,.948-.432A1.964,1.964,0,0,0,37.1-3.744Zm6.72-8.88h2.448V-3.432a1.347,1.347,0,0,0,.252.948,1.588,1.588,0,0,0,.948.324v2.3A7.881,7.881,0,0,1,45.96.012,2.619,2.619,0,0,1,44.808-.5a2.229,2.229,0,0,1-.732-1.02,4.973,4.973,0,0,1-.252-1.74ZM57.912-5.16H53.064V-3.5a1.175,1.175,0,0,0,.324.888,1.21,1.21,0,0,0,.876.312.964.964,0,0,0,.924-.408,2.195,2.195,0,0,0,.276-.816h2.448a3.5,3.5,0,0,1-.984,2.592,3.443,3.443,0,0,1-1.152.792,3.8,3.8,0,0,1-1.512.288,3.751,3.751,0,0,1-1.956-.48,3.308,3.308,0,0,1-1.236-1.272,3.32,3.32,0,0,1-.36-1.1,9.025,9.025,0,0,1-.1-1.368V-8.088a9.025,9.025,0,0,1,.1-1.368,3.32,3.32,0,0,1,.36-1.1,3.308,3.308,0,0,1,1.236-1.272,3.751,3.751,0,0,1,1.956-.48,3.891,3.891,0,0,1,1.524.288,3.414,3.414,0,0,1,1.164.792,3.931,3.931,0,0,1,.96,2.712ZM53.064-7.08h2.4V-8.472a1.484,1.484,0,0,0-.324-1.044,1.139,1.139,0,0,0-.876-.348,1.139,1.139,0,0,0-.876.348,1.484,1.484,0,0,0-.324,1.044Z" transform="translate(36 22)" fill="#9f8cd9"/>
  <g transform="translate(2 0)">
    <path d="M9 10 a5.5 5.5 0 1 1 0 10" stroke="#9f8cd9" fill="none"/>
    <path d="M7.5 6.5 a9.25 9.25 0 1 1 0 17" stroke="#9f8cd988" fill="none"/>
    <path d="M6 3 a13 13 0 1 1 0 24" stroke="#9f8cd944" fill="none"/>
    <path d="M0 6 l6 9 l-6 9" stroke="#9f8cd9" stroke-width="2" fill="none"/>
  </g>
</svg>
